<mxfile host="65bd71144e">
    <diagram id="R5vV7PDi-SPo7O27tIJo" name="Page-1">
        <mxGraphModel dx="2084" dy="776" grid="1" gridSize="10" guides="1" tooltips="1" connect="1" arrows="1" fold="1" page="1" pageScale="1" pageWidth="827" pageHeight="1169" math="0" shadow="0">
            <root>
                <mxCell id="0"/>
                <mxCell id="1" parent="0"/>
                <mxCell id="115" value="" style="group" vertex="1" connectable="0" parent="1">
                    <mxGeometry width="1130" height="1670" as="geometry"/>
                </mxCell>
                <mxCell id="3" value="&lt;div style=&quot;color: rgb(212 , 212 , 212) ; background-color: rgb(30 , 30 , 30) ; font-family: &amp;#34;fira code&amp;#34; , &amp;#34;consolas&amp;#34; , &amp;#34;courier new&amp;#34; , monospace ; font-weight: normal ; font-size: 14px ; line-height: 19px&quot;&gt;&lt;div&gt;&lt;span style=&quot;color: #6a9955&quot;&gt;Нарисовать блок-схему&lt;/span&gt;&lt;/div&gt;&lt;div&gt;&lt;span style=&quot;color: #6a9955&quot;&gt;Нахождение индексов максимального и минимального элемента&lt;/span&gt;&lt;/div&gt;&lt;div&gt;&lt;span style=&quot;color: #6a9955&quot;&gt;массива&lt;/span&gt;&lt;/div&gt;&lt;/div&gt;" style="text;whiteSpace=wrap;html=1;fontSize=24;" parent="115" vertex="1">
                    <mxGeometry width="180" height="70" as="geometry"/>
                </mxCell>
                <mxCell id="60" value="Start" style="ellipse;whiteSpace=wrap;html=1;fontSize=24;" parent="115" vertex="1">
                    <mxGeometry x="354" y="10" width="120" height="50" as="geometry"/>
                </mxCell>
                <mxCell id="61" value="arr, len, iMax = 0, iMin = 0, &lt;br&gt;max = arr[iMax], min = arr[iMin]" style="whiteSpace=wrap;html=1;fontSize=24;" parent="115" vertex="1">
                    <mxGeometry x="240" y="88" width="350" height="107" as="geometry"/>
                </mxCell>
                <mxCell id="62" value="" style="edgeStyle=none;html=1;fontSize=24;" parent="115" source="60" target="61" edge="1">
                    <mxGeometry relative="1" as="geometry"/>
                </mxCell>
                <mxCell id="79" value="" style="edgeStyle=none;html=1;fontSize=24;exitX=1;exitY=0.5;exitDx=0;exitDy=0;" parent="115" source="63" edge="1">
                    <mxGeometry relative="1" as="geometry">
                        <Array as="points">
                            <mxPoint x="770" y="250"/>
                            <mxPoint x="770" y="740"/>
                        </Array>
                        <mxPoint x="460" y="740.0000000000002" as="targetPoint"/>
                    </mxGeometry>
                </mxCell>
                <mxCell id="63" value="i = 1" style="shape=hexagon;perimeter=hexagonPerimeter2;whiteSpace=wrap;html=1;fixedSize=1;fontSize=24;" parent="115" vertex="1">
                    <mxGeometry x="355" y="230" width="120" height="40" as="geometry"/>
                </mxCell>
                <mxCell id="64" value="" style="edgeStyle=none;html=1;fontSize=24;" parent="115" source="61" target="63" edge="1">
                    <mxGeometry relative="1" as="geometry"/>
                </mxCell>
                <mxCell id="75" value="yes" style="edgeStyle=none;html=1;fontSize=24;entryX=0.5;entryY=0;entryDx=0;entryDy=0;" parent="115" target="74" edge="1">
                    <mxGeometry relative="1" as="geometry">
                        <mxPoint x="560" y="340" as="sourcePoint"/>
                        <Array as="points">
                            <mxPoint x="650" y="340"/>
                        </Array>
                    </mxGeometry>
                </mxCell>
                <mxCell id="65" value="arr[i] &amp;lt; min" style="rhombus;whiteSpace=wrap;html=1;fontSize=24;" parent="115" vertex="1">
                    <mxGeometry x="269" y="310" width="290" height="60" as="geometry"/>
                </mxCell>
                <mxCell id="66" value="" style="edgeStyle=none;html=1;fontSize=24;" parent="115" source="63" target="65" edge="1">
                    <mxGeometry relative="1" as="geometry"/>
                </mxCell>
                <mxCell id="72" value="no" style="edgeStyle=none;html=1;fontSize=24;exitX=0;exitY=0.5;exitDx=0;exitDy=0;" parent="115" source="67" edge="1">
                    <mxGeometry x="-0.868" relative="1" as="geometry">
                        <mxPoint x="193" y="520" as="targetPoint"/>
                        <Array as="points">
                            <mxPoint x="40" y="410"/>
                            <mxPoint x="40" y="520"/>
                        </Array>
                        <mxPoint as="offset"/>
                    </mxGeometry>
                </mxCell>
                <mxCell id="67" value="arr[i] &amp;gt; max" style="rhombus;whiteSpace=wrap;html=1;fontSize=24;" parent="115" vertex="1">
                    <mxGeometry x="90" y="380" width="210" height="60" as="geometry"/>
                </mxCell>
                <mxCell id="68" value="no" style="edgeStyle=none;html=1;fontSize=24;exitX=0;exitY=0.5;exitDx=0;exitDy=0;entryX=0.5;entryY=0;entryDx=0;entryDy=0;" parent="115" source="65" target="67" edge="1">
                    <mxGeometry x="-0.3276" relative="1" as="geometry">
                        <Array as="points">
                            <mxPoint x="193" y="340"/>
                        </Array>
                        <mxPoint as="offset"/>
                    </mxGeometry>
                </mxCell>
                <mxCell id="73" style="edgeStyle=none;html=1;fontSize=24;exitX=0.5;exitY=1;exitDx=0;exitDy=0;" parent="115" source="70" edge="1">
                    <mxGeometry relative="1" as="geometry">
                        <mxPoint x="190" y="520" as="targetPoint"/>
                        <Array as="points">
                            <mxPoint x="415" y="520"/>
                        </Array>
                    </mxGeometry>
                </mxCell>
                <mxCell id="70" value="max = arr[i]&lt;br&gt;iMax = i" style="whiteSpace=wrap;html=1;fontSize=24;" parent="115" vertex="1">
                    <mxGeometry x="340" y="440" width="150" height="60" as="geometry"/>
                </mxCell>
                <mxCell id="71" value="yes" style="edgeStyle=none;html=1;fontSize=24;exitX=1;exitY=0.5;exitDx=0;exitDy=0;entryX=0.5;entryY=0;entryDx=0;entryDy=0;" parent="115" source="67" target="70" edge="1">
                    <mxGeometry relative="1" as="geometry">
                        <Array as="points">
                            <mxPoint x="414" y="410"/>
                        </Array>
                    </mxGeometry>
                </mxCell>
                <mxCell id="74" value="min = arr[i]&lt;br&gt;iMin = i" style="whiteSpace=wrap;html=1;fontSize=24;" parent="115" vertex="1">
                    <mxGeometry x="580" y="370" width="140" height="60" as="geometry"/>
                </mxCell>
                <mxCell id="76" value="" style="endArrow=none;html=1;fontSize=24;entryX=0.564;entryY=1;entryDx=0;entryDy=0;entryPerimeter=0;" parent="115" target="74" edge="1">
                    <mxGeometry width="50" height="50" relative="1" as="geometry">
                        <mxPoint x="190" y="520" as="sourcePoint"/>
                        <mxPoint x="260" y="530" as="targetPoint"/>
                        <Array as="points">
                            <mxPoint x="190" y="560"/>
                            <mxPoint x="659" y="560"/>
                        </Array>
                    </mxGeometry>
                </mxCell>
                <mxCell id="77" value="" style="endArrow=none;html=1;fontSize=24;exitX=0;exitY=0.5;exitDx=0;exitDy=0;" parent="115" source="63" edge="1">
                    <mxGeometry width="50" height="50" relative="1" as="geometry">
                        <mxPoint x="400" y="250" as="sourcePoint"/>
                        <mxPoint x="410" y="560" as="targetPoint"/>
                        <Array as="points">
                            <mxPoint x="10" y="250"/>
                            <mxPoint x="10" y="640"/>
                            <mxPoint x="410" y="640"/>
                        </Array>
                    </mxGeometry>
                </mxCell>
                <mxCell id="82" value="i++" style="whiteSpace=wrap;html=1;fontSize=24;" parent="115" vertex="1">
                    <mxGeometry x="360" y="620" width="91" height="35" as="geometry"/>
                </mxCell>
                <mxCell id="83" value="&lt;span style=&quot;font-size: 24px&quot;&gt;min, max,&lt;/span&gt;&lt;br style=&quot;font-size: 24px&quot;&gt;&lt;span style=&quot;font-size: 24px&quot;&gt;iMax, iMin&lt;/span&gt;" style="rounded=0;whiteSpace=wrap;html=1;" vertex="1" parent="115">
                    <mxGeometry x="319" y="710" width="190" height="70" as="geometry"/>
                </mxCell>
                <mxCell id="88" value="&lt;font style=&quot;font-size: 24px&quot;&gt;yes&lt;/font&gt;" style="edgeStyle=none;html=1;" edge="1" parent="115" source="86">
                    <mxGeometry relative="1" as="geometry">
                        <mxPoint x="415" y="959.9999999999998" as="targetPoint"/>
                    </mxGeometry>
                </mxCell>
                <mxCell id="86" value="iMin &amp;lt; iMax" style="rhombus;whiteSpace=wrap;html=1;fontSize=24;" vertex="1" parent="115">
                    <mxGeometry x="230" y="830" width="370" height="90" as="geometry"/>
                </mxCell>
                <mxCell id="87" style="edgeStyle=none;html=1;exitX=0.5;exitY=1;exitDx=0;exitDy=0;entryX=0.5;entryY=0;entryDx=0;entryDy=0;" edge="1" parent="115" source="83" target="86">
                    <mxGeometry relative="1" as="geometry"/>
                </mxCell>
                <mxCell id="96" style="edgeStyle=none;html=1;exitX=1;exitY=0.5;exitDx=0;exitDy=0;" edge="1" parent="115" source="89">
                    <mxGeometry relative="1" as="geometry">
                        <mxPoint x="690" y="1370" as="targetPoint"/>
                        <Array as="points">
                            <mxPoint x="660" y="1015"/>
                            <mxPoint x="660" y="1370"/>
                        </Array>
                    </mxGeometry>
                </mxCell>
                <mxCell id="89" value="i &amp;lt;= iMax" style="rhombus;whiteSpace=wrap;html=1;fontSize=24;" vertex="1" parent="115">
                    <mxGeometry x="229" y="970" width="370" height="90" as="geometry"/>
                </mxCell>
                <mxCell id="90" value="sum += arr[i]" style="whiteSpace=wrap;html=1;fontSize=24;" vertex="1" parent="115">
                    <mxGeometry x="310" y="1109" width="210" height="60" as="geometry"/>
                </mxCell>
                <mxCell id="91" value="&lt;font style=&quot;font-size: 24px&quot;&gt;yes&lt;/font&gt;" style="edgeStyle=none;html=1;" edge="1" parent="115" source="89" target="90">
                    <mxGeometry relative="1" as="geometry"/>
                </mxCell>
                <mxCell id="94" style="edgeStyle=none;html=1;entryX=0;entryY=0.5;entryDx=0;entryDy=0;" edge="1" parent="115" source="92" target="89">
                    <mxGeometry relative="1" as="geometry">
                        <Array as="points">
                            <mxPoint x="170" y="1240"/>
                            <mxPoint x="170" y="1015"/>
                        </Array>
                    </mxGeometry>
                </mxCell>
                <mxCell id="92" value="i++" style="whiteSpace=wrap;html=1;fontSize=24;" vertex="1" parent="115">
                    <mxGeometry x="355" y="1210" width="120" height="60" as="geometry"/>
                </mxCell>
                <mxCell id="93" value="" style="edgeStyle=none;html=1;" edge="1" parent="115" source="90" target="92">
                    <mxGeometry relative="1" as="geometry"/>
                </mxCell>
                <mxCell id="98" value="i &amp;gt;= iMax" style="rhombus;whiteSpace=wrap;html=1;fontSize=24;" vertex="1" parent="115">
                    <mxGeometry x="760" y="970" width="370" height="90" as="geometry"/>
                </mxCell>
                <mxCell id="97" value="&lt;font style=&quot;font-size: 24px&quot;&gt;no&lt;/font&gt;" style="edgeStyle=none;html=1;exitX=1;exitY=0.5;exitDx=0;exitDy=0;entryX=0.5;entryY=0;entryDx=0;entryDy=0;" edge="1" parent="115" source="86" target="98">
                    <mxGeometry relative="1" as="geometry">
                        <mxPoint x="720" y="899.9999999999998" as="targetPoint"/>
                        <Array as="points">
                            <mxPoint x="945" y="875"/>
                        </Array>
                    </mxGeometry>
                </mxCell>
                <mxCell id="101" value="sum += arr[i]" style="whiteSpace=wrap;html=1;fontSize=24;" vertex="1" parent="115">
                    <mxGeometry x="840" y="1100" width="210" height="60" as="geometry"/>
                </mxCell>
                <mxCell id="102" style="edgeStyle=none;html=1;entryX=0.5;entryY=0;entryDx=0;entryDy=0;" edge="1" parent="115" source="98" target="101">
                    <mxGeometry relative="1" as="geometry"/>
                </mxCell>
                <mxCell id="103" value="i--" style="whiteSpace=wrap;html=1;fontSize=24;" vertex="1" parent="115">
                    <mxGeometry x="885" y="1210" width="120" height="60" as="geometry"/>
                </mxCell>
                <mxCell id="106" style="edgeStyle=none;html=1;entryX=0.5;entryY=0;entryDx=0;entryDy=0;" edge="1" parent="115" source="101" target="103">
                    <mxGeometry relative="1" as="geometry"/>
                </mxCell>
                <mxCell id="107" style="edgeStyle=none;html=1;entryX=0;entryY=0.5;entryDx=0;entryDy=0;" edge="1" parent="115">
                    <mxGeometry relative="1" as="geometry">
                        <mxPoint x="885" y="1242.4999999999998" as="sourcePoint"/>
                        <mxPoint x="759" y="1017.4999999999998" as="targetPoint"/>
                        <Array as="points">
                            <mxPoint x="700" y="1242.5"/>
                            <mxPoint x="700" y="1017.5"/>
                        </Array>
                    </mxGeometry>
                </mxCell>
                <mxCell id="108" style="edgeStyle=none;html=1;exitX=1;exitY=0.5;exitDx=0;exitDy=0;" edge="1" parent="115">
                    <mxGeometry relative="1" as="geometry">
                        <mxPoint x="690" y="1370" as="targetPoint"/>
                        <mxPoint x="1128.5700000000002" y="1009.9999999999998" as="sourcePoint"/>
                        <Array as="points">
                            <mxPoint x="1129" y="1370"/>
                        </Array>
                    </mxGeometry>
                </mxCell>
                <mxCell id="110" value="" style="endArrow=classic;html=1;" edge="1" parent="115">
                    <mxGeometry width="50" height="50" relative="1" as="geometry">
                        <mxPoint x="690" y="1370" as="sourcePoint"/>
                        <mxPoint x="690" y="1430" as="targetPoint"/>
                    </mxGeometry>
                </mxCell>
                <mxCell id="111" value="&lt;font style=&quot;font-size: 24px&quot;&gt;Sum&lt;/font&gt;" style="shape=document;whiteSpace=wrap;html=1;boundedLbl=1;" vertex="1" parent="115">
                    <mxGeometry x="630" y="1440" width="120" height="80" as="geometry"/>
                </mxCell>
                <mxCell id="113" value="&lt;font style=&quot;font-size: 24px&quot;&gt;End&lt;/font&gt;" style="ellipse;whiteSpace=wrap;html=1;" vertex="1" parent="115">
                    <mxGeometry x="630" y="1560" width="120" height="60" as="geometry"/>
                </mxCell>
                <mxCell id="114" value="" style="edgeStyle=none;html=1;" edge="1" parent="115" source="111" target="113">
                    <mxGeometry relative="1" as="geometry"/>
                </mxCell>
            </root>
        </mxGraphModel>
    </diagram>
</mxfile>